<svg xmlns="http://www.w3.org/2000/svg" viewBox="0 0 256 256">
  <path d="M46 104 L64 28 L122 70 Z" fill="#e8995a"/>
  <path d="M210 104 L192 28 L134 70 Z" fill="#e8995a"/>
  <path d="M62 88 L70 52 L106 78 Z" fill="#f6c9b2"/>
  <path d="M194 88 L186 52 L150 78 Z" fill="#f6c9b2"/>
  <circle cx="128" cy="140" r="88" fill="#f8b26a"/>
  <circle cx="128" cy="156" r="60" fill="#fcd9a8"/>
  <circle cx="96" cy="124" r="12" fill="#222222"/>
  <circle cx="160" cy="124" r="12" fill="#222222"/>
  <circle cx="99.5" cy="119" r="4" fill="#ffffff"/>
  <circle cx="163.5" cy="119" r="4" fill="#ffffff"/>
  <path d="M122 154 L134 154 L128 161 Z" fill="#d97f6c"/>
  <path d="M128 161 Q128 172 114 172" stroke="#b0643f" stroke-width="4" fill="none" stroke-linecap="round"/>
  <path d="M128 161 Q128 172 142 172" stroke="#b0643f" stroke-width="4" fill="none" stroke-linecap="round"/>
  <g stroke="#c98a4a" stroke-width="3.5" stroke-linecap="round">
    <line x1="30" y1="136" x2="70" y2="143"/>
    <line x1="30" y1="156" x2="70" y2="156"/>
    <line x1="226" y1="136" x2="186" y2="143"/>
    <line x1="226" y1="156" x2="186" y2="156"/>
  </g>
</svg>